<svg width="184" height="280" viewBox="0 0 184 280" fill="none" xmlns="http://www.w3.org/2000/svg">
<g filter="url(#filter0_d)">
<path d="M61.7756 195.257L70.5122 180.085C73.1971 175.397 78.1833 172.541 83.5958 172.541H101.112C106.524 172.541 111.51 175.439 114.195 180.085L122.932 195.257C125.617 199.945 125.617 205.698 122.932 210.386L114.195 225.558C111.51 230.246 106.524 233.101 101.112 233.101H83.5958C78.1833 233.101 73.1971 230.203 70.5122 225.558L61.7756 210.386C59.0907 205.698 59.0907 199.945 61.7756 195.257ZM81.9337 221.424L83.2548 223.683C84.235 225.345 86.025 226.367 87.9428 226.367H96.8072C98.725 226.367 100.515 225.345 101.495 223.683L102.816 221.424C104.905 217.801 102.305 213.326 98.1284 213.326H86.6216C82.4451 213.284 79.8454 217.801 81.9337 221.424Z" fill="#FBB03B"/>
<path d="M61.7756 210.386L70.5122 225.558C73.1971 230.246 78.1833 233.101 83.5958 233.101H92.375V226.41H87.9428C86.025 226.41 84.235 225.387 83.2548 223.725L81.9337 221.466C79.8454 217.844 82.4451 213.369 86.6216 213.369H92.375V172.627H83.5958C78.1833 172.627 73.1971 175.525 70.5122 180.17L61.7756 195.342C59.0907 199.945 59.0907 205.698 61.7756 210.386Z" fill="#D8701A"/>
<path d="M92.8438 29.1333C84.0646 29.1333 76.0951 32.7132 70.2991 38.4665C64.5457 44.2199 60.9659 52.1894 60.9659 61.0112V102.947L74.3478 97.5771V61.0112C74.3478 50.8256 82.6156 42.5578 92.8012 42.5578C97.9153 42.5578 102.518 44.6035 105.842 47.9703C109.166 51.2944 111.255 55.9398 111.255 61.0112V71.964C111.851 72.0066 112.405 72.0918 113.002 72.177L118.329 72.8589L124.679 73.6687V60.9686C124.679 43.4102 110.445 29.1333 92.8438 29.1333Z" fill="#4D4D4D"/>
<path d="M92.8438 14.899C80.6978 14.899 69.7024 19.8427 61.733 27.7696C53.7635 35.739 48.8625 46.7344 48.8625 58.8804V102.904L67.3585 84.4083V58.8804C67.3585 44.774 78.78 33.3525 92.8864 33.3525C99.9183 33.3525 106.311 36.2078 110.914 40.8105C115.516 45.4132 118.372 51.8059 118.372 58.8378V72.8589L124.722 73.6687L132.904 74.7341L136.868 75.2455V58.8804C136.868 34.5884 117.136 14.899 92.8438 14.899Z" fill="#808080"/>
<path d="M136.868 58.923V75.2881L132.904 74.7767L124.722 73.7113L118.372 72.9016V58.9656C118.372 51.9337 115.516 45.5411 110.914 40.9384C106.311 36.3357 99.9183 33.4803 92.8864 33.4803V14.899C117.136 14.899 136.868 34.5884 136.868 58.923Z" fill="#CCCCCC"/>
<path d="M154 91.0567V178.934C154 181.15 152.381 182.983 150.164 183.281L132.862 185.54V84.4509L150.164 86.667C152.381 86.9654 154 88.8405 154 91.0567Z" fill="#D8701A"/>
<path d="M113.045 81.8939C106.183 80.9989 99.2791 80.5727 92.375 80.5727C85.471 80.5727 78.5669 80.9989 71.7055 81.8939L52.1866 84.4083V185.54L71.7055 188.054C78.5669 188.949 85.471 189.375 92.375 189.375C99.2791 189.375 106.183 188.949 113.045 188.054L132.904 185.497V84.4509L113.045 81.8939Z" fill="#F7931E"/>
<path d="M52.2293 84.4083V185.54L34.5856 183.238C32.4121 182.94 30.75 181.108 30.75 178.891V91.0566C30.75 88.8405 32.3695 87.008 34.5856 86.7096L52.2293 84.4083Z" fill="#FBB03B"/>
<path d="M99.3217 211.92H85.4283C80.3995 211.92 77.2458 217.375 79.7602 221.722L81.337 224.492C82.4877 226.495 84.6612 227.774 87.0052 227.774H97.7448C100.089 227.774 102.22 226.538 103.413 224.492L104.99 221.722C107.504 217.375 104.351 211.92 99.3217 211.92ZM101.836 220.017L100.643 222.063C99.7478 223.597 98.1284 224.492 96.381 224.492H88.3263C86.579 224.492 84.9595 223.555 84.0646 222.063L82.8713 220.017C80.9961 216.736 83.3401 212.687 87.133 212.687H97.5743C101.367 212.687 103.711 216.778 101.836 220.017Z" fill="#A03C1D"/>
</g>
<defs>
<filter id="filter0_d" x="0.75" y="0.899048" width="183.25" height="278.202" filterUnits="userSpaceOnUse" color-interpolation-filters="sRGB">
<feFlood flood-opacity="0" result="BackgroundImageFix"/>
<feColorMatrix in="SourceAlpha" type="matrix" values="0 0 0 0 0 0 0 0 0 0 0 0 0 0 0 0 0 0 127 0"/>
<feOffset dy="16"/>
<feGaussianBlur stdDeviation="15"/>
<feColorMatrix type="matrix" values="0 0 0 0 0 0 0 0 0 0 0 0 0 0 0 0 0 0 0.25 0"/>
<feBlend mode="normal" in2="BackgroundImageFix" result="effect1_dropShadow"/>
<feBlend mode="normal" in="SourceGraphic" in2="effect1_dropShadow" result="shape"/>
</filter>
</defs>
</svg>
