<svg xmlns="http://www.w3.org/2000/svg" width="512" height="512" viewBox="0 0 512 512"><defs><style>.a{fill:#fff;}.b{fill:#ccc;}.c{fill:none;}.c,.d,.e{stroke:#000;stroke-miterlimit:10;stroke-width:12px;}.d{fill:#ed1c24;}.e{fill:#d30d41;}</style></defs><title>mascot</title><path class="a" d="M506,367.94v51.19a52,52,0,0,1-52,52H130.4a52,52,0,0,1-52-52V183.69L9.58,40.88,454,43.24a52,52,0,0,1,52,52.05V225.38"/><path class="b" d="M506,98.69V431.58c.57,56.06-149.95,44-149.95,44a52,52,0,0,0,52-52V44.86L454,46.65A52,52,0,0,1,506,98.69Z"/><line class="c" x1="506" y1="273.75" x2="506" y2="327.21"/><path class="c" d="M506,367.94v51.19a52,52,0,0,1-52,52H130.4a52,52,0,0,1-52-52V183.69L9.58,40.88,454,43.24a52,52,0,0,1,52,52.05V225.38"/><path class="d" d="M361.83,340a69.63,69.63,0,1,1-139.26,0C222.57,301.5,361.83,301.5,361.83,340Z"/><path class="c" d="M152,242.43a34.32,34.32,0,0,1,64.68.2"/><path class="c" d="M367.79,242.43a34.32,34.32,0,0,1,64.68.2"/><path class="e" d="M325,314.13c21,4.22,36.85,12.82,36.85,25.8a69.7,69.7,0,0,1-41.09,63.58"/></svg>