<svg xmlns="http://www.w3.org/2000/svg" width="1920" height="1080" viewBox="0 0 1920 1080"><defs><style>.a{fill:#a579cc;opacity:0.2;}</style></defs><title>bg</title><path class="a" d="M623,1159c-87.68-165.38-129.16-438.77-9-634,37.72-61.28,92.93-117.41,455-293C1411,66.13,1582-16.8,1697-36c82.8-13.83,576.06-96.19,867,204,292.32,301.61,256.84,861.93,14,1172C2127.64,1915.05,909.4,1699.22,623,1159Z"/><path class="a" d="M810,1133c-49.8-128.47-45-298.39,23-435,76.63-154,210-218.3,429-320,274.53-127.47,576.8-267.83,916-172,85.07,24,231.42,67.54,340,204,122.67,154.17,121.49,331.91,121,406-1.57,237.61-115.25,473.71-277,614C1914.69,1818,981.6,1575.63,810,1133Z"/><path class="a" d="M1181,1142c-62.16-209.22,55-403,70-427,156.87-251,473.31-278.8,578-288,74.9-6.58,251.61-19.83,441,75,89.21,44.67,290.7,145.55,328,349,31.94,174.23-75.8,318.54-109,363-83.65,112-184,158.9-317,219-227.94,103-404.87,183-602,115-188.59-65-300.7-232.66-334-288C1217.51,1229.26,1196.3,1193.48,1181,1142Z"/><path class="a" d="M1455,1182c-53.36-145,46.26-302.52,130-380,107.31-99.3,235.1-110.22,291-115,82.39-7,247.07-21.12,360,100,83.24,89.28,112.47,224.24,77,337-76.11,242-411.58,259.25-432,260C1861.81,1384.71,1532.47,1392.52,1455,1182Z"/><path class="a" d="M1729,1156c-47.23-69.45-12.64-170.65,43-225,67.27-65.71,193.24-90.22,259-23,66.79,68.27,41.95,201-37,265C1916,1236.27,1782.44,1234.58,1729,1156Z"/></svg>